<mxfile host="app.diagrams.net" agent="Mozilla/5.0 (Windows NT 10.0; Win64; x64) AppleWebKit/537.36 (KHTML, like Gecko) Chrome/133.0.0.0 Safari/537.36" version="26.0.14">
  <diagram name="Page-1" id="nEke9gmSgveok0ApYJw1">
    <mxGraphModel dx="2564" dy="1715" grid="1" gridSize="10" guides="1" tooltips="1" connect="1" arrows="1" fold="1" page="1" pageScale="1" pageWidth="827" pageHeight="1169" math="0" shadow="0">
      <root>
        <mxCell id="0" />
        <mxCell id="1" parent="0" />
        <mxCell id="xWgECTe6KO_qs0JQiP9B-1" value="KliÃ«nt" style="swimlane;childLayout=stackLayout;horizontal=1;startSize=50;horizontalStack=0;rounded=1;fontSize=14;fontStyle=0;strokeWidth=2;resizeParent=0;resizeLast=1;shadow=0;dashed=0;align=center;arcSize=4;whiteSpace=wrap;html=1;" parent="1" vertex="1">
          <mxGeometry x="-790" y="90" width="160" height="150" as="geometry" />
        </mxCell>
        <mxCell id="xWgECTe6KO_qs0JQiP9B-2" value="+KLIENT&lt;span style=&quot;background-color: transparent; color: light-dark(rgb(0, 0, 0), rgb(255, 255, 255));&quot;&gt;_ID {PK}&lt;/span&gt;&lt;div&gt;&lt;span style=&quot;background-color: transparent; color: light-dark(rgb(0, 0, 0), rgb(255, 255, 255));&quot;&gt;+KNAAM&lt;/span&gt;&lt;/div&gt;&lt;div&gt;&lt;span style=&quot;background-color: transparent; color: light-dark(rgb(0, 0, 0), rgb(255, 255, 255));&quot;&gt;+KEPOSADRES&lt;/span&gt;&lt;/div&gt;&lt;div&gt;&lt;span style=&quot;background-color: transparent; color: light-dark(rgb(0, 0, 0), rgb(255, 255, 255));&quot;&gt;+KTELEFOONNOMMER&lt;/span&gt;&lt;/div&gt;&lt;div&gt;&lt;span style=&quot;background-color: transparent; color: light-dark(rgb(0, 0, 0), rgb(255, 255, 255));&quot;&gt;+KFISIESE_ADRESS&lt;/span&gt;&lt;/div&gt;&lt;div&gt;&lt;span style=&quot;background-color: transparent; color: light-dark(rgb(0, 0, 0), rgb(255, 255, 255));&quot;&gt;+BESTELLING_ID {FK, PK}&lt;/span&gt;&lt;/div&gt;" style="align=left;strokeColor=none;fillColor=none;spacingLeft=4;fontSize=12;verticalAlign=top;resizable=0;rotatable=0;part=1;html=1;" parent="xWgECTe6KO_qs0JQiP9B-1" vertex="1">
          <mxGeometry y="50" width="160" height="100" as="geometry" />
        </mxCell>
        <mxCell id="xWgECTe6KO_qs0JQiP9B-3" value="Bestelling" style="swimlane;childLayout=stackLayout;horizontal=1;startSize=50;horizontalStack=0;rounded=1;fontSize=14;fontStyle=0;strokeWidth=2;resizeParent=0;resizeLast=1;shadow=0;dashed=0;align=center;arcSize=4;whiteSpace=wrap;html=1;" parent="1" vertex="1">
          <mxGeometry x="-540" y="70" width="170" height="170" as="geometry" />
        </mxCell>
        <mxCell id="xWgECTe6KO_qs0JQiP9B-4" value="+BESTELLING_ID {PK}&lt;div&gt;+KLIENT_ID {FK, PK}&lt;/div&gt;&lt;div&gt;+WERKNEMER_ID {FK, PK}&lt;/div&gt;&lt;div&gt;+BETALING_ID {FK, PK}&lt;/div&gt;&lt;div&gt;+BDATUM&lt;/div&gt;&lt;div&gt;+BTOTALE_BEDRAG&lt;/div&gt;&lt;div&gt;+B_PHOEVEELHEID&lt;/div&gt;&lt;div&gt;+BSTATUS&lt;/div&gt;" style="align=left;strokeColor=none;fillColor=none;spacingLeft=4;fontSize=12;verticalAlign=top;resizable=0;rotatable=0;part=1;html=1;" parent="xWgECTe6KO_qs0JQiP9B-3" vertex="1">
          <mxGeometry y="50" width="170" height="120" as="geometry" />
        </mxCell>
        <mxCell id="xWgECTe6KO_qs0JQiP9B-5" value="Produk" style="swimlane;childLayout=stackLayout;horizontal=1;startSize=50;horizontalStack=0;rounded=1;fontSize=14;fontStyle=0;strokeWidth=2;resizeParent=0;resizeLast=1;shadow=0;dashed=0;align=center;arcSize=4;whiteSpace=wrap;html=1;" parent="1" vertex="1">
          <mxGeometry x="-545" y="505" width="180" height="160" as="geometry" />
        </mxCell>
        <mxCell id="xWgECTe6KO_qs0JQiP9B-6" value="+PRODUK_ID {PK}&lt;div&gt;+PNAAM&lt;/div&gt;&lt;div&gt;+PBESKRYWING&lt;/div&gt;&lt;div&gt;+PPRYS&lt;/div&gt;&lt;div&gt;+PVOORRAADHOEVEELHEID&lt;/div&gt;&lt;div&gt;+VERSKAFFER_ID {FK, PK}&lt;/div&gt;&lt;div&gt;+KATEGORIE_ID {FK, PK}&lt;/div&gt;" style="align=left;strokeColor=none;fillColor=none;spacingLeft=4;fontSize=12;verticalAlign=top;resizable=0;rotatable=0;part=1;html=1;" parent="xWgECTe6KO_qs0JQiP9B-5" vertex="1">
          <mxGeometry y="50" width="180" height="110" as="geometry" />
        </mxCell>
        <mxCell id="xWgECTe6KO_qs0JQiP9B-7" value="Kategorie" style="swimlane;childLayout=stackLayout;horizontal=1;startSize=50;horizontalStack=0;rounded=1;fontSize=14;fontStyle=0;strokeWidth=2;resizeParent=0;resizeLast=1;shadow=0;dashed=0;align=center;arcSize=4;whiteSpace=wrap;html=1;" parent="1" vertex="1">
          <mxGeometry x="-255" y="520" width="160" height="120" as="geometry" />
        </mxCell>
        <mxCell id="xWgECTe6KO_qs0JQiP9B-8" value="+KATEGORIE_ID {PK}&lt;div&gt;+KNAAM&lt;/div&gt;&lt;div&gt;+KBESKRYWING&lt;/div&gt;" style="align=left;strokeColor=none;fillColor=none;spacingLeft=4;fontSize=12;verticalAlign=top;resizable=0;rotatable=0;part=1;html=1;" parent="xWgECTe6KO_qs0JQiP9B-7" vertex="1">
          <mxGeometry y="50" width="160" height="70" as="geometry" />
        </mxCell>
        <mxCell id="xWgECTe6KO_qs0JQiP9B-9" value="Bestellyn" style="swimlane;childLayout=stackLayout;horizontal=1;startSize=50;horizontalStack=0;rounded=1;fontSize=14;fontStyle=0;strokeWidth=2;resizeParent=0;resizeLast=1;shadow=0;dashed=0;align=center;arcSize=4;whiteSpace=wrap;html=1;" parent="1" vertex="1">
          <mxGeometry x="-560" y="300" width="210" height="150" as="geometry" />
        </mxCell>
        <mxCell id="xWgECTe6KO_qs0JQiP9B-10" value="+BESTELLYN_ID {PK}&lt;div&gt;+BESTELLING_ID {FK, PK}&lt;/div&gt;&lt;div&gt;+PRODUK_ID {FK}&lt;/div&gt;&lt;div&gt;+PHOEVEELHEID&lt;br&gt;&lt;div&gt;+PPRYS {FK}&lt;/div&gt;&lt;/div&gt;&lt;div&gt;+KLIENT_ID {FK, PK}&lt;/div&gt;" style="align=left;strokeColor=none;fillColor=none;spacingLeft=4;fontSize=12;verticalAlign=top;resizable=0;rotatable=0;part=1;html=1;" parent="xWgECTe6KO_qs0JQiP9B-9" vertex="1">
          <mxGeometry y="50" width="210" height="100" as="geometry" />
        </mxCell>
        <mxCell id="xWgECTe6KO_qs0JQiP9B-11" value="Betaling" style="swimlane;childLayout=stackLayout;horizontal=1;startSize=50;horizontalStack=0;rounded=1;fontSize=14;fontStyle=0;strokeWidth=2;resizeParent=0;resizeLast=1;shadow=0;dashed=0;align=center;arcSize=4;whiteSpace=wrap;html=1;" parent="1" vertex="1">
          <mxGeometry x="-260" y="80" width="170" height="130" as="geometry" />
        </mxCell>
        <mxCell id="xWgECTe6KO_qs0JQiP9B-12" value="+BETALING_ID {PK}&lt;div&gt;+BESTELLING_ID&lt;/div&gt;&lt;div&gt;+BET_BEDRAG_BETAAL&lt;/div&gt;&lt;div&gt;+BET_BETALINGSMETODE&lt;/div&gt;&lt;div&gt;+BET_TRANSAKSIEDATUM&lt;/div&gt;" style="align=left;strokeColor=none;fillColor=none;spacingLeft=4;fontSize=12;verticalAlign=top;resizable=0;rotatable=0;part=1;html=1;" parent="xWgECTe6KO_qs0JQiP9B-11" vertex="1">
          <mxGeometry y="50" width="170" height="80" as="geometry" />
        </mxCell>
        <mxCell id="xWgECTe6KO_qs0JQiP9B-14" value="Verskaffer" style="swimlane;childLayout=stackLayout;horizontal=1;startSize=50;horizontalStack=0;rounded=1;fontSize=14;fontStyle=0;strokeWidth=2;resizeParent=0;resizeLast=1;shadow=0;dashed=0;align=center;arcSize=4;whiteSpace=wrap;html=1;" parent="1" vertex="1">
          <mxGeometry x="-830" y="510" width="180" height="120" as="geometry" />
        </mxCell>
        <mxCell id="xWgECTe6KO_qs0JQiP9B-15" value="+VERSKAFFER_ID {PK}&lt;div&gt;+VNAAM&lt;/div&gt;&lt;div&gt;+VKONTAKBESONDERHEDE&lt;/div&gt;&lt;div&gt;+VADRES&lt;/div&gt;" style="align=left;strokeColor=none;fillColor=none;spacingLeft=4;fontSize=12;verticalAlign=top;resizable=0;rotatable=0;part=1;html=1;" parent="xWgECTe6KO_qs0JQiP9B-14" vertex="1">
          <mxGeometry y="50" width="180" height="70" as="geometry" />
        </mxCell>
        <mxCell id="xWgECTe6KO_qs0JQiP9B-16" value="Werknemer" style="swimlane;childLayout=stackLayout;horizontal=1;startSize=50;horizontalStack=0;rounded=1;fontSize=14;fontStyle=0;strokeWidth=2;resizeParent=0;resizeLast=1;shadow=0;dashed=0;align=center;arcSize=4;whiteSpace=wrap;html=1;" parent="1" vertex="1">
          <mxGeometry x="-545" y="-150" width="180" height="130" as="geometry" />
        </mxCell>
        <mxCell id="xWgECTe6KO_qs0JQiP9B-17" value="+WERKNEMER_ID {PK}&lt;div&gt;+WNAAM&lt;/div&gt;&lt;div&gt;+WPOSTE&lt;/div&gt;&lt;div&gt;+WKONTAKBESONDERHEDE&lt;/div&gt;" style="align=left;strokeColor=none;fillColor=none;spacingLeft=4;fontSize=12;verticalAlign=top;resizable=0;rotatable=0;part=1;html=1;" parent="xWgECTe6KO_qs0JQiP9B-16" vertex="1">
          <mxGeometry y="50" width="180" height="80" as="geometry" />
        </mxCell>
        <mxCell id="WE_JC53gW5UIaxTdctp7-14" value="skep &amp;gt;" style="endArrow=none;html=1;endSize=12;startArrow=none;startSize=14;startFill=0;edgeStyle=orthogonalEdgeStyle;rounded=0;fontSize=12;curved=1;exitX=0.5;exitY=1;exitDx=0;exitDy=0;entryX=0.5;entryY=0;entryDx=0;entryDy=0;" parent="1" source="xWgECTe6KO_qs0JQiP9B-17" target="xWgECTe6KO_qs0JQiP9B-3" edge="1">
          <mxGeometry relative="1" as="geometry">
            <mxPoint x="-290" y="-60" as="sourcePoint" />
            <mxPoint x="-130" y="-60" as="targetPoint" />
          </mxGeometry>
        </mxCell>
        <mxCell id="WE_JC53gW5UIaxTdctp7-16" value="1..*" style="edgeLabel;resizable=0;html=1;align=right;verticalAlign=top;" parent="WE_JC53gW5UIaxTdctp7-14" connectable="0" vertex="1">
          <mxGeometry x="1" relative="1" as="geometry">
            <mxPoint x="20" y="-30" as="offset" />
          </mxGeometry>
        </mxCell>
        <mxCell id="JSLo5t4CIIwY8juhuN9n-1" value="1..1" style="edgeLabel;html=1;align=center;verticalAlign=middle;resizable=0;points=[];" parent="WE_JC53gW5UIaxTdctp7-14" vertex="1" connectable="0">
          <mxGeometry x="-0.7339" y="5" relative="1" as="geometry">
            <mxPoint x="5" y="-3" as="offset" />
          </mxGeometry>
        </mxCell>
        <mxCell id="JSLo5t4CIIwY8juhuN9n-18" value="" style="endArrow=none;html=1;rounded=0;startFill=0;exitX=1;exitY=0.25;exitDx=0;exitDy=0;" parent="1" source="xWgECTe6KO_qs0JQiP9B-2" edge="1">
          <mxGeometry relative="1" as="geometry">
            <mxPoint x="-590" y="130" as="sourcePoint" />
            <mxPoint x="-541" y="160" as="targetPoint" />
          </mxGeometry>
        </mxCell>
        <mxCell id="JSLo5t4CIIwY8juhuN9n-19" value="&amp;lt;behoort aan" style="edgeLabel;resizable=0;html=1;;align=center;verticalAlign=middle;" parent="JSLo5t4CIIwY8juhuN9n-18" connectable="0" vertex="1">
          <mxGeometry relative="1" as="geometry">
            <mxPoint y="10" as="offset" />
          </mxGeometry>
        </mxCell>
        <mxCell id="JSLo5t4CIIwY8juhuN9n-20" value="1..1" style="edgeLabel;resizable=0;html=1;;align=left;verticalAlign=bottom;" parent="JSLo5t4CIIwY8juhuN9n-18" connectable="0" vertex="1">
          <mxGeometry x="-1" relative="1" as="geometry">
            <mxPoint as="offset" />
          </mxGeometry>
        </mxCell>
        <mxCell id="JSLo5t4CIIwY8juhuN9n-21" value="1..*" style="edgeLabel;resizable=0;html=1;;align=right;verticalAlign=bottom;" parent="JSLo5t4CIIwY8juhuN9n-18" connectable="0" vertex="1">
          <mxGeometry x="1" relative="1" as="geometry">
            <mxPoint x="-4" y="-1" as="offset" />
          </mxGeometry>
        </mxCell>
        <mxCell id="JSLo5t4CIIwY8juhuN9n-26" value="" style="endArrow=none;html=1;rounded=0;startFill=0;entryX=0.5;entryY=0;entryDx=0;entryDy=0;" parent="1" target="xWgECTe6KO_qs0JQiP9B-5" edge="1">
          <mxGeometry relative="1" as="geometry">
            <mxPoint x="-455" y="450" as="sourcePoint" />
            <mxPoint x="-527" y="265" as="targetPoint" />
          </mxGeometry>
        </mxCell>
        <mxCell id="JSLo5t4CIIwY8juhuN9n-27" value="&amp;lt;gaan na" style="edgeLabel;resizable=0;html=1;;align=center;verticalAlign=middle;" parent="JSLo5t4CIIwY8juhuN9n-26" connectable="0" vertex="1">
          <mxGeometry relative="1" as="geometry" />
        </mxCell>
        <mxCell id="JSLo5t4CIIwY8juhuN9n-28" value="1..1" style="edgeLabel;resizable=0;html=1;;align=left;verticalAlign=bottom;" parent="JSLo5t4CIIwY8juhuN9n-26" connectable="0" vertex="1">
          <mxGeometry x="-1" relative="1" as="geometry">
            <mxPoint y="20" as="offset" />
          </mxGeometry>
        </mxCell>
        <mxCell id="JSLo5t4CIIwY8juhuN9n-29" value="1..*" style="edgeLabel;resizable=0;html=1;;align=right;verticalAlign=bottom;" parent="JSLo5t4CIIwY8juhuN9n-26" connectable="0" vertex="1">
          <mxGeometry x="1" relative="1" as="geometry">
            <mxPoint x="20" as="offset" />
          </mxGeometry>
        </mxCell>
        <mxCell id="JSLo5t4CIIwY8juhuN9n-32" value="" style="endArrow=none;html=1;rounded=0;startFill=0;entryX=0;entryY=0.25;entryDx=0;entryDy=0;exitX=1;exitY=0.25;exitDx=0;exitDy=0;" parent="1" target="xWgECTe6KO_qs0JQiP9B-6" edge="1" source="xWgECTe6KO_qs0JQiP9B-15">
          <mxGeometry relative="1" as="geometry">
            <mxPoint x="-650" y="408" as="sourcePoint" />
            <mxPoint x="-560" y="412.5" as="targetPoint" />
          </mxGeometry>
        </mxCell>
        <mxCell id="JSLo5t4CIIwY8juhuN9n-33" value="produseer&amp;gt;" style="edgeLabel;resizable=0;html=1;;align=center;verticalAlign=middle;" parent="JSLo5t4CIIwY8juhuN9n-32" connectable="0" vertex="1">
          <mxGeometry relative="1" as="geometry">
            <mxPoint y="12" as="offset" />
          </mxGeometry>
        </mxCell>
        <mxCell id="JSLo5t4CIIwY8juhuN9n-34" value="1..1" style="edgeLabel;resizable=0;html=1;;align=left;verticalAlign=bottom;" parent="JSLo5t4CIIwY8juhuN9n-32" connectable="0" vertex="1">
          <mxGeometry x="-1" relative="1" as="geometry" />
        </mxCell>
        <mxCell id="JSLo5t4CIIwY8juhuN9n-35" value="1..*" style="edgeLabel;resizable=0;html=1;;align=right;verticalAlign=bottom;" parent="JSLo5t4CIIwY8juhuN9n-32" connectable="0" vertex="1">
          <mxGeometry x="1" relative="1" as="geometry" />
        </mxCell>
        <mxCell id="JSLo5t4CIIwY8juhuN9n-36" value="" style="endArrow=none;html=1;rounded=0;startFill=0;entryX=1.011;entryY=0.182;entryDx=0;entryDy=0;entryPerimeter=0;exitX=-0.005;exitY=0.135;exitDx=0;exitDy=0;exitPerimeter=0;" parent="1" source="xWgECTe6KO_qs0JQiP9B-8" target="xWgECTe6KO_qs0JQiP9B-6" edge="1">
          <mxGeometry relative="1" as="geometry">
            <mxPoint x="-355" y="290" as="sourcePoint" />
            <mxPoint x="-255" y="290" as="targetPoint" />
          </mxGeometry>
        </mxCell>
        <mxCell id="JSLo5t4CIIwY8juhuN9n-37" value="behoort aan &amp;gt;" style="edgeLabel;resizable=0;html=1;;align=center;verticalAlign=middle;" parent="JSLo5t4CIIwY8juhuN9n-36" connectable="0" vertex="1">
          <mxGeometry relative="1" as="geometry">
            <mxPoint x="-8" y="10" as="offset" />
          </mxGeometry>
        </mxCell>
        <mxCell id="JSLo5t4CIIwY8juhuN9n-38" value="1..1" style="edgeLabel;resizable=0;html=1;;align=left;verticalAlign=bottom;" parent="JSLo5t4CIIwY8juhuN9n-36" connectable="0" vertex="1">
          <mxGeometry x="-1" relative="1" as="geometry">
            <mxPoint x="-24" as="offset" />
          </mxGeometry>
        </mxCell>
        <mxCell id="JSLo5t4CIIwY8juhuN9n-39" value="1..*" style="edgeLabel;resizable=0;html=1;;align=right;verticalAlign=bottom;" parent="JSLo5t4CIIwY8juhuN9n-36" connectable="0" vertex="1">
          <mxGeometry x="1" relative="1" as="geometry">
            <mxPoint x="18" as="offset" />
          </mxGeometry>
        </mxCell>
        <mxCell id="JSLo5t4CIIwY8juhuN9n-40" value="" style="endArrow=none;html=1;rounded=0;startFill=0;entryX=0;entryY=0.25;entryDx=0;entryDy=0;exitX=1;exitY=0.25;exitDx=0;exitDy=0;" parent="1" source="xWgECTe6KO_qs0JQiP9B-4" target="xWgECTe6KO_qs0JQiP9B-12" edge="1">
          <mxGeometry relative="1" as="geometry">
            <mxPoint x="-360" y="170" as="sourcePoint" />
            <mxPoint x="-260" y="250" as="targetPoint" />
          </mxGeometry>
        </mxCell>
        <mxCell id="JSLo5t4CIIwY8juhuN9n-41" value="&amp;lt;betaal" style="edgeLabel;resizable=0;html=1;;align=center;verticalAlign=middle;" parent="JSLo5t4CIIwY8juhuN9n-40" connectable="0" vertex="1">
          <mxGeometry relative="1" as="geometry">
            <mxPoint y="11" as="offset" />
          </mxGeometry>
        </mxCell>
        <mxCell id="JSLo5t4CIIwY8juhuN9n-42" value="1..1" style="edgeLabel;resizable=0;html=1;;align=left;verticalAlign=bottom;" parent="JSLo5t4CIIwY8juhuN9n-40" connectable="0" vertex="1">
          <mxGeometry x="-1" relative="1" as="geometry" />
        </mxCell>
        <mxCell id="JSLo5t4CIIwY8juhuN9n-43" value="1..1" style="edgeLabel;resizable=0;html=1;;align=right;verticalAlign=bottom;" parent="JSLo5t4CIIwY8juhuN9n-40" connectable="0" vertex="1">
          <mxGeometry x="1" relative="1" as="geometry" />
        </mxCell>
        <mxCell id="OaUYqgC-Nhte0M3T8ypq-1" value="" style="endArrow=none;html=1;rounded=0;startFill=0;exitX=0.5;exitY=1;exitDx=0;exitDy=0;entryX=0.5;entryY=0;entryDx=0;entryDy=0;" edge="1" parent="1" source="xWgECTe6KO_qs0JQiP9B-4" target="xWgECTe6KO_qs0JQiP9B-9">
          <mxGeometry relative="1" as="geometry">
            <mxPoint x="-670" y="315" as="sourcePoint" />
            <mxPoint x="-581" y="310" as="targetPoint" />
          </mxGeometry>
        </mxCell>
        <mxCell id="OaUYqgC-Nhte0M3T8ypq-2" value="&amp;lt;behoort aan" style="edgeLabel;resizable=0;html=1;;align=center;verticalAlign=middle;" connectable="0" vertex="1" parent="OaUYqgC-Nhte0M3T8ypq-1">
          <mxGeometry relative="1" as="geometry">
            <mxPoint x="5" as="offset" />
          </mxGeometry>
        </mxCell>
        <mxCell id="OaUYqgC-Nhte0M3T8ypq-3" value="1..*" style="edgeLabel;resizable=0;html=1;;align=left;verticalAlign=bottom;" connectable="0" vertex="1" parent="OaUYqgC-Nhte0M3T8ypq-1">
          <mxGeometry x="-1" relative="1" as="geometry">
            <mxPoint y="20" as="offset" />
          </mxGeometry>
        </mxCell>
        <mxCell id="OaUYqgC-Nhte0M3T8ypq-4" value="1..1" style="edgeLabel;resizable=0;html=1;;align=right;verticalAlign=bottom;" connectable="0" vertex="1" parent="OaUYqgC-Nhte0M3T8ypq-1">
          <mxGeometry x="1" relative="1" as="geometry">
            <mxPoint x="25" y="-1" as="offset" />
          </mxGeometry>
        </mxCell>
      </root>
    </mxGraphModel>
  </diagram>
</mxfile>
